<?xml version="1.0" encoding="UTF-8"?>
<svg width="91px" height="91px" viewBox="0 0 91 91" version="1.1" xmlns="http://www.w3.org/2000/svg" xmlns:xlink="http://www.w3.org/1999/xlink">
    <!-- Generator: Sketch 51.2 (57519) - http://www.bohemiancoding.com/sketch -->
    <title>Location Search_1806980</title>
    <desc>Created with Sketch.</desc>
    <defs></defs>
    <g id="Page-1" stroke="none" stroke-width="1" fill="none" fill-rule="evenodd">
        <g id="Artboard-2" transform="translate(-92.000000, -35.000000)" fill="#646669" fill-rule="nonzero">
            <g id="Location-Search_1806980" transform="translate(92.000000, 35.000000)">
                <path d="M89.682,83.31823 L66.76978,60.406 C78.7384585,45.0740915 76.7104382,23.0760406 62.1403915,10.1907612 C47.5703448,-2.69451809 25.4893803,-2.0176757 11.7358847,11.7357982 C-2.01761083,25.4892722 -2.69448792,47.5702356 10.1907685,62.1403026 C23.076025,76.7103695 45.0740727,78.7384244 60.406,66.76977 L83.31824,89.682 C84.455018,90.8187762 86.1119071,91.2627369 87.6647732,90.8466464 C89.2176394,90.4305559 90.4305652,89.2176282 90.8466532,87.6647614 C91.2627413,86.1118946 90.818778,84.4550062 89.682,83.31823 Z M6,37.78124 C6,20.2289416 20.2289483,5.99999184 37.7812467,5.99999 C55.3335451,5.99998816 69.5624963,20.2289349 69.5625,37.7812333 C69.5625037,55.3335317 55.3335584,69.5624845 37.78126,69.56249 C20.2371738,69.5426728 6.01982276,55.3253262 6,37.78124 Z" id="Shape"></path>
                <path d="M37.78136,13.873 C27.9090427,13.873 19.9059421,21.8760827 19.90592,31.7484 C19.90592,45.30394 37.78136,61.68976 37.78136,61.68976 C37.78136,61.68976 55.65681,45.30394 55.65681,31.7484 C55.6567824,21.8760811 47.6536789,13.873 37.78136,13.873 Z M37.78136,42.02682 C32.1047727,42.02682 27.5029874,37.4250407 27.50298,31.7484533 C27.5029726,26.071866 32.104746,21.4700747 37.7813333,21.47006 C43.4579207,21.4700453 48.0597179,26.0718127 48.05974,31.7484 C48.0597427,34.4743967 46.9768459,37.0887444 45.0492751,39.0163151 C43.1217044,40.9438859 40.5073567,42.0267827 37.78136,42.02678 L37.78136,42.02682 Z" id="Shape"></path>
            </g>
        </g>
    </g>
</svg>