<?xml version="1.0" encoding="UTF-8"?>
<svg width="44px" height="71px" viewBox="0 0 44 71" version="1.1" xmlns="http://www.w3.org/2000/svg" xmlns:xlink="http://www.w3.org/1999/xlink">
    <!-- Generator: Sketch 52.5 (67469) - http://www.bohemiancoding.com/sketch -->
    <title>Group</title>
    <desc>Created with Sketch.</desc>
    <g id="Page-1" stroke="none" stroke-width="1" fill="none" fill-rule="evenodd">
        <g id="Artboard">
            <g id="Group" transform="translate(1.000000, 1.000000)">
                <path d="M21.1971831,70 C26.0120425,62.8667231 42.3943662,33.0538955 42.3943662,21.2937063 C42.3943662,9.53351704 32.9040641,0 21.1971831,0 C9.49030213,0 0,9.53351704 0,21.2937063 C0,33.0538955 16.3271227,63.0206512 21.1971831,70 Z" id="Oval" stroke="#FFFFFF" fill="#4DACFF"></path>
                <circle id="Oval" stroke="#FFFFFF" fill="#DAEEFF" cx="21.1971831" cy="21.1971831" r="10.8521127"></circle>
                <path d="M30.5969224,25.4823995 C31.2081973,24.166845 31.5492958,22.7012941 31.5492958,21.1563893 C31.5492958,15.4616051 26.9144971,10.8450704 21.1971831,10.8450704 C15.4798691,10.8450704 10.8450704,15.4616051 10.8450704,21.1563893 C10.8450704,22.4286265 11.0763901,23.6470489 11.4994216,24.772205 C12.6643777,23.8385133 15.0219021,23.4719002 17.3336947,24.2245516 C18.691138,24.6664951 21.4243409,27.2068755 24.3266039,27.5629359 C27.7786865,27.9864502 29.5482178,26.7816162 30.5969224,25.4823995 Z" id="Oval" fill="#B7DCFF"></path>
                <path d="M31.2871094,23.3234863 C31.4168861,22.6540895 31.5492958,22.1386335 31.5492958,21.4302721 C31.5492958,15.5842266 26.9144971,10.8450704 21.1971831,10.8450704 C15.4798691,10.8450704 10.8450704,15.5842266 10.8450704,21.4302721 C10.8450704,22.0145627 10.9483036,22.5417916 11.0373535,23.1003418 C12.4539897,22.0432885 15.0219021,21.3166504 17.3336947,22.0892933 C18.691138,22.5429754 21.4277398,25.1325175 24.3266039,25.5163496 C26.9389762,25.862248 29.6077881,25.5163496 31.2871094,23.3234863 Z" id="Oval" fill="#92CBFF"></path>
                <path d="M31.5308228,21.2108765 C31.5308228,15.61301 27.0685365,11 21.3501244,11 C15.7286354,11 11.0247534,15.3629057 10.8712769,20.8295898 C10.8686307,20.9238439 14.8689438,18.8706058 17.4602051,19.5864258 C20.0811226,20.4245426 22.0472412,22.0386963 24.4801463,22.6635453 C27.0459901,23.3225374 29.9295654,23.3225374 31.5308228,21.2108765 Z" id="Oval" fill="#6EBAFF"></path>
                <path d="M31.3768311,19.3727417 C30.4690295,14.684748 26.4798673,11 21.2985259,11 C16.2894444,11 12.2336998,14.2915084 11.1400146,18.7479858 C12.1765295,18.0157174 14.2415635,16.4892748 17.3513804,16.9642213 C20.1012834,17.3437385 22.0387675,19.2391439 24.4957088,20.227814 C27.2895986,21.4599418 30.4348145,20.6296387 31.3768311,19.3727417 Z" id="Oval" fill="#4FA7F8"></path>
                <path d="M30.8067017,17.3696899 C29.3555187,13.3773774 25.4075566,10.84021 21,10.84021 C17.032182,10.84021 13.6433436,13.187371 11.9373779,16.5599365 C14.1207957,15.314171 15.2545571,14.7715982 17.1348877,14.7715982 C20.8102293,14.9754184 21.781454,17.1334568 24.0471152,17.9824666 C26.8366179,19.0277752 29.3790283,19.0277752 30.8067017,17.3696899 Z" id="Oval" fill="#3A87CF"></path>
            </g>
        </g>
    </g>
</svg>