<?xml version="1.0" encoding="UTF-8"?>
<svg width="28px" height="45px" viewBox="0 0 28 45" version="1.1" xmlns="http://www.w3.org/2000/svg" xmlns:xlink="http://www.w3.org/1999/xlink">
    <!-- Generator: Sketch 52.5 (67469) - http://www.bohemiancoding.com/sketch -->
    <title>Group</title>
    <desc>Created with Sketch.</desc>
    <g id="Page-1" stroke="none" stroke-width="1" fill="none" fill-rule="evenodd">
        <g id="Artboard-Copy">
            <g id="Group" transform="translate(1.000000, 1.000000)">
                <path d="M13,44 C15.9529005,39.516226 26,20.7767343 26,13.3846154 C26,5.99249643 20.1797017,0 13,0 C5.82029825,0 0,5.99249643 0,13.3846154 C0,20.7767343 10.0132453,39.6129808 13,44 Z" id="Oval" stroke="#FFFFFF" fill="#4DACFF"></path>
                <g id="Group-2" transform="translate(6.000000, 6.000000)">
                    <circle id="Oval" stroke="#FFFFFF" fill="#DAEEFF" cx="7.12548015" cy="7.12548015" r="7.08770807"></circle>
                    <path d="M13.1071324,9.85243604 C13.4961256,9.01526499 13.7131882,8.0826417 13.7131882,7.09952048 C13.7131882,3.47556691 10.7637709,0.537772087 7.12548015,0.537772087 C3.48718945,0.537772087 0.537772087,3.47556691 0.537772087,7.09952048 C0.537772087,7.90912594 0.684975487,8.68448569 0.954177363,9.40049412 C1.69551311,8.80632664 3.19575589,8.57302741 4.66689664,9.05198741 C5.53072421,9.33322417 7.27003511,10.9498299 9.11692977,11.1764138 C11.3137096,11.4459229 12.4397749,10.6792103 13.1071324,9.85243604 Z" id="Oval" fill="#B7DCFF"></path>
                    <path d="M13.5463423,8.47858221 C13.6289275,8.05260239 13.7131882,7.72458495 13.7131882,7.27380951 C13.7131882,3.55359877 10.7637709,0.537772087 7.12548015,0.537772087 C3.48718945,0.537772087 0.537772087,3.55359877 0.537772087,7.27380951 C0.537772087,7.64563084 0.60346594,7.98114009 0.660134055,8.33658114 C1.56162984,7.66391086 3.19575589,7.20150482 4.66689664,7.69318666 C5.53072421,7.98189344 7.27219807,9.62978388 9.11692977,9.87404068 C10.7793485,10.0941578 12.4776833,9.87404068 13.5463423,8.47858221 Z" id="Oval" fill="#92CBFF"></path>
                    <path d="M13.7014327,7.13419411 C13.7014327,3.57191544 10.8617959,0.636363636 7.22280643,0.636363636 C3.64549528,0.636363636 0.652115792,3.41275815 0.554448908,6.89155717 C0.552764981,6.95153701 3.09841879,5.64493097 4.74740323,6.10045277 C6.41525985,6.63379983 7.66642623,7.66098855 9.21463854,8.05861976 C10.8474482,8.47797833 12.6824507,8.47797833 13.7014327,7.13419411 Z" id="Oval" fill="#6EBAFF"></path>
                    <path d="M13.6034379,5.96447199 C13.0257461,2.98120328 10.4871883,0.636363636 7.18997101,0.636363636 C4.00237372,0.636363636 1.42144532,2.73095992 0.725463867,5.56690008 C1.38506425,5.10091106 2.69917678,4.12953852 4.67815119,4.43177722 C6.42808945,4.67328813 7.66103388,5.87945518 9.22454197,6.50860891 C11.0024718,7.29269025 13.0039728,6.76431552 13.6034379,5.96447199 Z" id="Oval" fill="#4FA7F8"></path>
                    <path d="M13.2406283,4.68980269 C12.3171483,2.14924013 9.80480873,0.534679066 7,0.534679066 C4.47502491,0.534679066 2.31849139,2.028327 1.23287686,4.17450506 C2.62232457,3.38174518 3.34380907,3.03647155 4.54038308,3.03647155 C6.87923681,3.16617533 7.49728894,4.53947251 8.93907332,5.07975147 C10.7142114,5.74494786 12.3321089,5.74494786 13.2406283,4.68980269 Z" id="Oval" fill="#3A87CF"></path>
                </g>
            </g>
        </g>
    </g>
</svg>